# xmcd
#
# Track frame offsets:
#	150
#	14353
#	32496
#	48870
#	62134
#	77847
#	91233
#	104542
#	118717
#	132305
#	147564
#	159077
#	177194
#	191861
#	204602
#	221728
#	236311
#	250757
#
# Disc length: 3544 seconds
#
# Revision: 0
# Processed by: cddbd v1.5.2PL0 Copyright (c) Steve Scherf et al.
# Submitted via: audiograbber 1.83.01
#
DISCID=f90dd612
DTITLE=Truck Stop - Ich Möcht So Gern Dave Dudley Hör'n
DYEAR=1995
DGENRE=Country
TTITLE0=Das gibt's doch nur in Dallas
TTITLE1=Meine Tür steht immer offen
TTITLE2=Truck Stop - Ich Möcht So Gern Dave Dudley - 03 - Ich möcht' so gern Da
TTITLE2=ve Dudley hör'n
TTITLE3=Die Frau mit dem Gurt
TTITLE4=Jeden Tag in einer andern Stadt
TTITLE5=Der wilde, wilde Westen
TTITLE6=Take It Easy, altes Haus
TTITLE7=Du bist immer auf Achse
TTITLE8=Truck Stop - Ich Möcht So Gern Dave Dudley - 09 - Arizona-Arizona
TTITLE9=Tausend Meilen
TTITLE10=Kein Bier, kein Wein, kein Nikotin
TTITLE11=Kleine Cowboys werden groß
TTITLE12=Mein Stiefel kommt in' Himmel
TTITLE13=Wild West Cowboys
TTITLE14=Old Texas Town, die Westernstadt
TTITLE15=Louisiana Ladies
TTITLE16=Die Lady und der Tramp
TTITLE17=Sweet Tequila
EXTD=
EXTT0=
EXTT1=
EXTT2=
EXTT3=
EXTT4=
EXTT5=
EXTT6=
EXTT7=
EXTT8=
EXTT9=
EXTT10=
EXTT11=
EXTT12=
EXTT13=
EXTT14=
EXTT15=
EXTT16=
EXTT17=
PLAYORDER=
